<mxfile host="app.diagrams.net" modified="2023-11-21T08:56:09.858Z" agent="Mozilla/5.0 (Windows NT 10.0; Win64; x64) AppleWebKit/537.36 (KHTML, like Gecko) Chrome/119.0.0.0 Safari/537.36" etag="-plPLn6Hsuvhjx02ka81" version="22.1.3" type="github">
  <diagram name="第 1 页" id="XvKrsK8wSaH_SidoSqTX">
    <mxGraphModel dx="683" dy="376" grid="1" gridSize="10" guides="1" tooltips="1" connect="1" arrows="1" fold="1" page="1" pageScale="1" pageWidth="1169" pageHeight="827" math="0" shadow="0">
      <root>
        <mxCell id="0" />
        <mxCell id="1" parent="0" />
        <mxCell id="Q0ljFhS4EjerYzR_BElU-1" value="shift操作后的动作（时间线）" style="rounded=1;whiteSpace=wrap;html=1;fillColor=#fff2cc;strokeColor=#d6b656;" parent="1" vertex="1">
          <mxGeometry x="280" y="390" width="460" height="20" as="geometry" />
        </mxCell>
        <mxCell id="Q0ljFhS4EjerYzR_BElU-3" value="踩刀判定帧" style="rounded=1;whiteSpace=wrap;html=1;fillColor=#dae8fc;strokeColor=#6c8ebf;" parent="1" vertex="1">
          <mxGeometry x="280" y="330" width="210" height="20" as="geometry" />
        </mxCell>
        <mxCell id="Q0ljFhS4EjerYzR_BElU-5" value="攻击袭来&lt;br&gt;进入判定范围" style="text;html=1;strokeColor=none;fillColor=none;align=center;verticalAlign=middle;whiteSpace=wrap;rounded=0;fontSize=10;" parent="1" vertex="1">
          <mxGeometry x="240" y="180" width="80" height="20" as="geometry" />
        </mxCell>
        <mxCell id="Q0ljFhS4EjerYzR_BElU-7" value="" style="shape=flexArrow;endArrow=classic;html=1;rounded=0;dashed=1;dashPattern=8 8;" parent="1" edge="1">
          <mxGeometry width="50" height="50" relative="1" as="geometry">
            <mxPoint x="280" y="210" as="sourcePoint" />
            <mxPoint x="280" y="300" as="targetPoint" />
          </mxGeometry>
        </mxCell>
        <mxCell id="Q0ljFhS4EjerYzR_BElU-8" value="" style="shape=flexArrow;endArrow=classic;html=1;rounded=0;" parent="1" edge="1">
          <mxGeometry width="50" height="50" relative="1" as="geometry">
            <mxPoint x="420" y="210" as="sourcePoint" />
            <mxPoint x="420" y="300" as="targetPoint" />
          </mxGeometry>
        </mxCell>
        <mxCell id="Q0ljFhS4EjerYzR_BElU-10" value="直接进入踩刀" style="text;html=1;strokeColor=none;fillColor=none;align=center;verticalAlign=middle;whiteSpace=wrap;rounded=0;fontSize=10;" parent="1" vertex="1">
          <mxGeometry x="250" y="300" width="70" height="20" as="geometry" />
        </mxCell>
        <mxCell id="Q0ljFhS4EjerYzR_BElU-11" value="垫步过程中进入判定" style="text;html=1;strokeColor=none;fillColor=none;align=center;verticalAlign=middle;whiteSpace=wrap;rounded=0;fontSize=10;" parent="1" vertex="1">
          <mxGeometry x="367.5" y="300" width="105" height="20" as="geometry" />
        </mxCell>
        <mxCell id="Q0ljFhS4EjerYzR_BElU-13" value="攻击袭来&lt;br&gt;进入判定范围" style="text;html=1;strokeColor=none;fillColor=none;align=center;verticalAlign=middle;whiteSpace=wrap;rounded=0;fontSize=10;" parent="1" vertex="1">
          <mxGeometry x="380" y="180" width="80" height="20" as="geometry" />
        </mxCell>
        <mxCell id="o9dbmnWvESaqAjwrCY_s-1" value="原有垫步动作" style="rounded=1;whiteSpace=wrap;html=1;fillColor=#d5e8d4;strokeColor=#82b366;" vertex="1" parent="1">
          <mxGeometry x="280" y="360" width="140" height="20" as="geometry" />
        </mxCell>
        <mxCell id="o9dbmnWvESaqAjwrCY_s-2" value="踩刀动作" style="rounded=1;whiteSpace=wrap;html=1;fillColor=#e1d5e7;strokeColor=#9673a6;" vertex="1" parent="1">
          <mxGeometry x="420" y="360" width="320" height="20" as="geometry" />
        </mxCell>
      </root>
    </mxGraphModel>
  </diagram>
</mxfile>
